<svg xmlns="http://www.w3.org/2000/svg" width="14" height="12"><path fill="#666" d="M14 1.533A5.584 5.584 0 0112.353 2 2.967 2.967 0 0013.616.358c-.563.345-1.18.59-1.823.72A2.828 2.828 0 009.69.144c-.767.005-1.5.32-2.039.877a2.982 2.982 0 00-.834 2.09c0 .229.026.456.076.678A8.064 8.064 0 01.974.686C.21 2.042.598 3.766 1.862 4.65a2.784 2.784 0 01-1.3-.372v.038c-.007 1.406.956 2.622 2.304 2.91a2.791 2.791 0 01-1.296.052A2.892 2.892 0 004.253 9.34a5.65 5.65 0 01-3.567 1.27.894.894 0 01-.686-.042 7.935 7.935 0 004.4 1.336 8.096 8.096 0 005.817-2.48 8.425 8.425 0 002.357-5.964c0-.13 0-.258-.01-.385a5.925 5.925 0 001.437-1.54z"/></svg>